# xmcd
#
# Track frame offsets:
#	150
#	13374
#	26012
#	39248
#	54303
#	68910
#	83402
#	95726
#	110055
#	123283
#	137125
#	151205
#	164462
#	176982
#	190969
#	205168
#	216722
#	228875
#	241890
#	255437
#	268049
#	282659
#	295603
#
# Disc length: 4121 seconds
#
# Revision: 0
# Processed by: cddbd v1.5.2PL0 Copyright (c) Steve Scherf et al.
# Submitted via: EZCDAudioConverter 1.2.2.1
#
DISCID=54101717
DTITLE=Various Artist - Cajun Dance Party: Fais Do-Do
DYEAR=1994
DGENRE=Country
TTITLE0=Ma Blonde Est Partié
TTITLE1=Les Tracas Du Hobo
TTITLE2=Two Step De Mama
TTITLE3=La Valse Ah Abe
TTITLE4=Two Step De Eunice
TTITLE5=Two Step De Prairie Soileau
TTITLE6=Rosalia
TTITLE7=You're Small and Sweet
TTITLE8=Far Away From Home Blues
TTITLE9=Fais Do-Do Negre
TTITLE10=Tiger Rag Blues
TTITLE11=One Step À Marie
TTITLE12=Mazurka De La Louisiane
TTITLE13=Le Vieux Soulard Et Sa Femme
TTITLE14=Marie Buller
TTITLE15=Mon Coeur T'appelle
TTITLE16=C'est Si Triste Sans Lui
TTITLE17=Madam Atchen
TTITLE18=Taunt Aline
TTITLE19=Le Blues Du Petit Chien
TTITLE20=La Valse Du Vieux Temps
TTITLE21=La Valse D'auguste
TTITLE22=La Valse D'utah
EXTD=
EXTT0=
EXTT1=
EXTT2=
EXTT3=
EXTT4=
EXTT5=
EXTT6=
EXTT7=
EXTT8=
EXTT9=
EXTT10=
EXTT11=
EXTT12=
EXTT13=
EXTT14=
EXTT15=
EXTT16=
EXTT17=
EXTT18=
EXTT19=
EXTT20=
EXTT21=
EXTT22=
PLAYORDER=
